<?xml version="1.0" encoding="UTF-8"?>
<svg version="1.1" xmlns="http://www.w3.org/2000/svg" width="512" height="512">
<path d="M0 0 C0.95279406 0.21126746 1.90558811 0.42253492 2.88725471 0.64020443 C6.08626819 1.3519433 9.28203943 2.07729603 12.47802734 2.80249023 C14.81200421 3.32454272 17.146178 3.84571541 19.48052979 4.36608887 C24.56688379 5.50189108 29.6518991 6.64349387 34.73577881 7.79031372 C42.91370454 9.63503027 51.09433802 11.46754806 59.27539062 13.29833984 C62.15648314 13.94322644 65.03755261 14.5882159 67.91860962 15.23326111 C68.64704634 15.39634571 69.37548305 15.55943031 70.12599361 15.72745687 C75.45336589 16.9203781 80.78026723 18.11538921 86.10702515 19.31105042 C108.77572896 24.39836423 131.45326629 29.44517592 154.13486397 34.47467428 C161.16677971 36.03395825 168.19845396 37.59432665 175.22994995 39.15550232 C176.22099334 39.37553647 177.21203673 39.59557063 178.23311174 39.82227248 C182.22913178 40.70950769 186.22514098 41.59679172 190.22113013 42.48416603 C201.13686717 44.90818158 212.05292931 47.33070616 222.97003174 49.74856567 C231.5024913 51.63835454 240.03401199 53.53231806 248.56441689 55.43136084 C252.9658176 56.41106339 257.36763302 57.38879454 261.77060699 58.36140442 C265.83669709 59.25963152 269.90154942 60.16325477 273.96550441 61.07109153 C275.4403067 61.39954884 276.91554803 61.72604237 278.39126706 62.05035603 C297.63184716 66.28175057 297.63184716 66.28175057 300.73068237 69.79794312 C300.97972321 70.43027863 301.22876404 71.06261414 301.48535156 71.71411133 C301.78004333 72.42170593 302.07473511 73.12930054 302.37835693 73.8583374 C302.64585754 74.58111877 302.91335815 75.30390015 303.18896484 76.04858398 C303.59674164 77.04743622 303.59674164 77.04743622 304.01275635 78.06646729 C304.85979953 80.16561152 305.65726448 82.27872775 306.44677734 84.40014648 C306.74753677 85.1966008 307.0482962 85.99305511 307.35816956 86.81364441 C308.00761394 88.53394054 308.65529074 90.25490483 309.30136108 91.97647095 C311.05458466 96.64625627 312.82268254 101.31039566 314.59130859 105.97436523 C315.14625755 107.4384507 315.14625755 107.4384507 315.7124176 108.93211365 C321.7944646 124.94499347 328.09382296 140.8741309 334.35638428 156.8170166 C336.99863946 163.5489454 339.60897351 170.29251165 342.18896484 177.04858398 C347.30960368 176.05112621 352.10094551 174.79514406 357.00146484 172.99780273 C358.01466797 172.62977539 359.02787109 172.26174805 360.07177734 171.88256836 C362.15630088 171.1158921 364.23452653 170.33187874 366.30615234 169.53100586 C372.19199503 167.43052383 376.08761576 166.42683238 381.92626953 168.94189453 C383.04630371 169.48970581 383.04630371 169.48970581 384.18896484 170.04858398 C385.01557617 170.41056885 385.8421875 170.77255371 386.69384766 171.14550781 C389.58888189 172.42410415 392.45099938 173.76225247 395.31396484 175.11108398 C397.60542201 176.1805434 399.89710392 177.24952135 402.18896484 178.31811523 C402.80595245 178.60657318 403.42294006 178.89503113 404.05862427 179.19223022 C409.36275215 181.67047216 414.68066927 184.11808462 420.00146484 186.56030273 C421.72268051 187.35118419 423.4438718 188.14211869 425.16503906 188.93310547 C427.7083253 190.10189268 430.25185513 191.27012511 432.79644775 192.43606567 C441.35476433 196.35926181 449.87976624 200.33244247 458.30615234 204.53295898 C458.98823761 204.8724054 459.67032288 205.21185181 460.37307739 205.56158447 C465.06103538 207.92065452 465.06103538 207.92065452 466.18896484 209.04858398 C466.66658589 216.45171021 466.66658589 216.45171021 464.94671631 218.60099792 C462.84719321 220.33004804 461.39820279 220.70067893 458.73681641 221.21777344 C457.81149109 221.40164108 456.88616577 221.58550873 455.93280029 221.77494812 C454.90874084 221.96450577 453.8846814 222.15406342 452.82958984 222.34936523 C451.73898254 222.55966873 450.64837524 222.76997223 449.52471924 222.98664856 C440.57028639 224.68062512 431.58347517 226.16868452 422.59068298 227.64205551 C420.22192218 228.03133998 417.85383778 228.42449277 415.48596191 228.81912231 C414.69457069 228.95100008 413.90317947 229.08287785 413.0878067 229.21875191 C411.477717 229.48732569 409.86768601 229.75625174 408.25771332 230.02552605 C404.16967111 230.70721409 400.08011499 231.37447935 395.98535156 232.01464844 C391.9369495 232.64850222 387.89633161 233.32000187 383.85819244 234.01613808 C382.34722629 234.26988843 380.83399438 234.51058078 379.3186264 234.73656273 C367.82252384 236.46120466 360.83243909 240.34348966 352.18896484 248.04858398 C350.76949162 249.2009293 349.34535233 250.34762112 347.91162109 251.48217773 C346.69034783 252.48199 345.47028065 253.48327743 344.25146484 254.48608398 C339.27027656 258.55941828 334.26135268 262.58938199 329.18896484 266.54858398 C324.14042799 270.4904343 319.15133921 274.49883019 314.18896484 278.54858398 C308.665568 283.05618371 303.09712049 287.4970104 297.47802734 291.88452148 C293.00459776 295.38634645 288.59029283 298.95669563 284.18896484 302.54858398 C278.665568 307.05618371 273.09712049 311.4970104 267.47802734 315.88452148 C263.00459776 319.38634645 258.59029283 322.95669563 254.18896484 326.54858398 C248.67241106 331.05059914 243.11759018 335.49506334 237.49560547 339.86474609 C234.27577978 342.37644877 231.10548342 344.9357359 227.97021484 347.55249023 C227.25736328 348.14416992 226.54451172 348.73584961 225.81005859 349.34545898 C224.4314727 350.49301114 223.0587072 351.64760468 221.69287109 352.81030273 C218.0755865 355.8136106 214.96480357 358.32322138 210.18896484 359.04858398 C204.36381635 357.24723284 200.83995719 352.88337629 196.87646484 348.48608398 C196.21348389 347.76445068 195.55050293 347.04281738 194.86743164 346.29931641 C192.96511814 344.22412868 191.07482584 342.13872027 189.18896484 340.04858398 C188.34591797 339.11788086 187.50287109 338.18717773 186.63427734 337.22827148 C185.22457998 335.66366232 183.81826293 334.09600019 182.41552734 332.52514648 C178.23992358 327.880703 173.98424481 323.30954516 169.74169922 318.72631836 C167.20130005 315.98140907 164.66364148 313.2339718 162.12646484 310.48608398 C161.62912842 309.94749756 161.13179199 309.40891113 160.61938477 308.85400391 C156.84774024 304.76738923 153.08859349 300.66946419 149.33325195 296.56787109 C145.96095294 292.88630877 142.57714671 289.21552997 139.18896484 285.54858398 C133.05193867 278.9059814 126.94127857 272.23946739 120.83447266 265.5690918 C115.12635729 259.3349586 109.40595644 253.11253038 103.66967773 246.90429688 C99.88045307 242.8018019 96.10473795 238.68713731 92.33349609 234.56811523 C88.96109185 230.88649341 85.57722476 227.21561444 82.18896484 223.54858398 C76.05193867 216.9059814 69.94127857 210.23946739 63.83447266 203.5690918 C58.12635729 197.3349586 52.40595644 191.11253038 46.66967773 184.90429688 C42.88045307 180.8018019 39.10473795 176.68713731 35.33349609 172.56811523 C31.96109185 168.88649341 28.57722476 165.21561444 25.18896484 161.54858398 C19.05193867 154.9059814 12.94127857 148.23946739 6.83447266 141.5690918 C1.12635729 135.3349586 -4.59404356 129.11253038 -10.33032227 122.90429688 C-14.1174394 118.80408367 -17.89161241 114.69221387 -21.65991211 110.57470703 C-24.57892133 107.38704192 -27.50867744 104.20963012 -30.44677734 101.03955078 C-31.96821894 99.39387567 -33.48144531 97.74091192 -34.99462891 96.08764648 C-36.74365298 94.18232158 -38.51696919 92.34156223 -40.34619141 90.50952148 C-46.28339614 84.41524784 -46.28339614 84.41524784 -46.49853516 79.67358398 C-45.63882217 75.1405519 -45.63882217 75.1405519 -42.81103516 73.04858398 C-34.66487656 71.64994027 -25.67026485 73.65542257 -17.52965927 74.74591255 C-15.19376521 75.05877966 -12.8568703 75.36291642 -10.51956177 75.6650238 C-5.57401645 76.30590928 -0.6300029 76.95815918 4.31396484 77.61108398 C10.0810421 78.37128773 15.8486855 79.12682593 21.61748886 79.87382317 C23.92321969 80.17441905 26.22796988 80.48186483 28.53274536 80.78968811 C29.93259766 80.97207751 31.33248778 81.15417698 32.73242188 81.3359375 C33.95833038 81.49804214 35.18423889 81.66014679 36.44729614 81.8271637 C37.35204681 81.90023239 38.25679749 81.97330109 39.18896484 82.04858398 C39.51896484 81.71858398 39.84896484 81.38858398 40.18896484 81.04858398 C32.43632223 71.98288118 24.64933998 62.94798855 16.83007812 53.93969727 C13.57411077 50.18773012 10.32142815 46.43291446 7.06860352 42.67822266 C3.78559741 38.88915028 0.49884206 35.10337346 -2.79052734 31.31982422 C-4.4130709 29.4500474 -6.03036962 27.57584119 -7.64697266 25.70092773 C-9.75581333 23.25667849 -11.88777279 20.83573897 -14.03759766 18.42749023 C-15.0456096 17.28053007 -16.05343087 16.1334023 -17.06103516 14.98608398 C-17.52719238 14.47416504 -17.99334961 13.96224609 -18.47363281 13.43481445 C-21.40149263 10.06827417 -22.56603908 7.50876888 -22.81103516 3.04858398 C-19.66459162 -5.9066784 -7.10554326 -1.63623077 0 0 Z M5.18896484 17.04858398 C9.09037396 22.53164545 13.36425467 27.49531776 17.94580078 32.41064453 C21.80382039 36.57149654 25.38478876 40.91309249 28.94287109 45.33374023 C31.27727074 48.15531894 33.70887083 50.8544911 36.18896484 53.54858398 C40.27509292 57.98783424 44.10145864 62.57691258 47.88427734 67.27514648 C51.11864927 71.16735677 54.55894176 74.85474991 58.02490234 78.54077148 C60.18896484 81.04858398 60.18896484 81.04858398 61.35421467 83.61163807 C63.04818413 86.3641375 63.04818413 86.3641375 66.50306225 87.0330534 C67.90199836 87.22789037 69.3045814 87.39750643 70.70903015 87.54753113 C71.48182385 87.64839738 72.25461754 87.74926363 73.05082923 87.85318643 C75.64632281 88.18634127 78.2445695 88.48677792 80.84399414 88.78759766 C82.70360042 89.01957243 84.56295603 89.25356439 86.42207336 89.48942566 C91.47778924 90.12513686 96.53653174 90.73284615 101.59622169 91.33598876 C106.89035966 91.97216887 112.18117356 92.63484875 117.47236633 93.29499817 C127.50457004 94.54273279 137.53936902 95.76808742 147.57538015 96.98477775 C162.28953184 98.76949632 176.99990867 100.58485512 191.70988941 102.40359211 C192.78957467 102.53707198 193.86925993 102.67055185 194.98166293 102.80807656 C197.1351183 103.07431263 199.2885662 103.34060912 201.44200641 103.60696775 C207.74204176 104.38541632 214.04292907 105.15645027 220.34466684 105.92099226 C224.27102123 106.39796076 228.19690368 106.87873856 232.12270927 107.36020088 C233.93971027 107.58208146 235.75692524 107.802218 237.57436752 108.02045441 C240.06148743 108.31926374 242.54778119 108.62423332 245.03398132 108.93058777 C245.74791241 109.01473425 246.46184349 109.09888072 247.19740885 109.18557709 C259.8308602 110.76493916 259.8308602 110.76493916 262.88722229 113.6537323 C263.37605141 114.6017144 263.37605141 114.6017144 263.87475586 115.56884766 C264.26132355 116.28551605 264.64789124 117.00218445 265.0461731 117.74057007 C265.61185501 118.88303696 265.61185501 118.88303696 266.18896484 120.04858398 C266.58904755 120.79725739 266.98913025 121.54593079 267.40133667 122.31729126 C268.70515351 124.77096859 269.96401705 127.2440193 271.21630859 129.72436523 C271.6825061 130.64008301 272.14870361 131.55580078 272.62902832 132.49926758 C274.13138853 135.45158444 275.6288786 138.40634312 277.12646484 141.36108398 C279.18742292 145.41395257 281.25083446 149.46557089 283.31396484 153.51733398 C283.81995712 154.51195145 284.3259494 155.50656891 284.84727478 156.53132629 C289.0696226 164.82746221 293.3331693 173.10147525 297.62646484 181.36108398 C298.49356079 183.02941284 298.49356079 183.02941284 299.37817383 184.73144531 C300.64726017 187.17110808 301.91733219 189.61024777 303.18896484 192.04858398 C309.26669956 190.25335066 315.30986301 188.38900001 321.31396484 186.36108398 C321.98427734 186.13614258 322.65458984 185.91120117 323.34521484 185.67944336 C324.96027584 185.13724431 326.5746941 184.59313131 328.18896484 184.04858398 C327.45024129 178.94158543 325.47937612 174.33633927 323.60302734 169.56420898 C323.23389725 168.61552444 322.86476715 167.6668399 322.48445129 166.68940735 C321.26487747 163.55758784 320.03955029 160.42805533 318.81396484 157.29858398 C317.5295367 154.0079477 316.24623055 150.71687517 314.9629364 147.42579651 C314.07259542 145.1429101 313.18172813 142.86022889 312.2903595 140.57774353 C309.09298554 132.38586342 305.92544636 124.18285819 302.77099609 115.97436523 C301.47522168 112.60856491 300.17904251 109.24292072 298.88275146 105.87731934 C298.04579312 103.70130084 297.21054452 101.52462394 296.37701416 99.34729004 C295.21367685 96.30964498 294.04385154 93.27457476 292.87255859 90.23999023 C292.52755814 89.33396561 292.18255768 88.42794098 291.82710266 87.49446106 C291.34771492 86.25776924 291.34771492 86.25776924 290.85864258 84.99609375 C290.44496681 83.91872704 290.44496681 83.91872704 290.02293396 82.81959534 C289.21883236 80.85279858 289.21883236 80.85279858 287.18896484 79.04858398 C284.39037322 78.28093754 281.62613003 77.6167713 278.79248047 77.00610352 C277.90789217 76.80930307 277.02330387 76.61250263 276.11190987 76.40973854 C273.10785058 75.74327504 270.1015568 75.08748035 267.09521484 74.43139648 C264.9169557 73.95023588 262.73884909 73.46838432 260.56088257 72.98590088 C255.7994768 71.93258372 251.03707321 70.88394091 246.27386475 69.83880615 C238.62183426 68.15980235 230.97185112 66.47159643 223.32226562 64.78149414 C220.63468346 64.18779317 217.94708926 63.59414675 215.25949097 63.0005188 C214.24020577 62.77536813 214.24020577 62.77536813 213.20032895 62.54566896 C208.22593969 61.44700492 203.251215 60.34986729 198.27639771 59.25314331 C176.20424667 54.38630139 154.14035388 49.48284608 132.0792923 44.56599808 C126.48702207 43.31962701 120.89461802 42.07385721 115.30218506 40.82821655 C113.44530583 40.41460621 111.58842692 40.00099448 109.73154831 39.58738136 C108.81358144 39.38290799 107.89561458 39.17843462 106.94983053 38.96776509 C105.57450084 38.66141546 105.57450084 38.66141546 104.17138672 38.34887695 C103.25597186 38.14497306 102.34055699 37.94106916 101.39740229 37.73098636 C91.26098253 35.47310086 81.12476025 33.21433581 70.98901367 30.95343018 C63.06598338 29.18614172 55.14244843 27.42113597 47.21829569 25.65888691 C43.12684776 24.74890956 39.03565435 23.8378235 34.9450798 22.92392731 C31.17333537 22.0812727 27.40095734 21.2415195 23.6280489 20.40409255 C22.25376756 20.09850903 20.87972813 19.79183531 19.50594997 19.48399758 C17.64214122 19.06651794 15.77737913 18.65330116 13.91256714 18.24032593 C12.87265059 18.00861883 11.83273403 17.77691174 10.76130486 17.53818321 C8.13420236 16.95509616 8.13420236 16.95509616 5.18896484 17.04858398 Z M-19.81103516 90.04858398 C-15.66582184 94.94861612 -11.40040344 99.69140292 -6.99853516 104.36108398 C-3.06269086 108.55575729 0.85789012 112.75749279 4.68896484 117.04858398 C8.46240604 121.27258533 12.31730256 125.41492183 16.18896484 129.54858398 C20.8234317 134.49733522 25.40764903 139.48260234 29.92724609 144.53686523 C34.10577536 149.17726993 38.35899712 153.74905517 42.60107422 158.33129883 C44.2420742 160.10602113 45.87998572 161.88354892 47.51708984 163.66186523 C48.05873779 164.24991943 48.60038574 164.83797363 49.15844727 165.44384766 C50.19550547 166.56991009 51.23214829 167.69635528 52.26831055 168.82324219 C53.57045433 170.23607377 54.8793655 171.64266043 56.18896484 173.04858398 C56.61793564 173.60501083 57.04690643 174.16143768 57.48887634 174.73472595 C60.03042666 176.69888034 61.74738718 176.1472089 64.88647461 175.75 C66.0679306 175.60877213 67.2493866 175.46754425 68.46664429 175.32203674 C70.40393906 175.06486122 70.40393906 175.06486122 72.38037109 174.80249023 C73.74303404 174.63357966 75.10588333 174.46616648 76.46890259 174.30015564 C80.13848133 173.8492118 83.8052536 173.3783332 87.47185898 172.90390015 C91.26514329 172.41665146 95.06072107 171.94805363 98.85620117 171.47827148 C104.23858155 170.81052586 109.6202162 170.13728562 115.00094509 169.45635796 C127.36484221 167.8918103 139.73783775 166.40763324 152.11325073 164.9369812 C157.27832696 164.32221883 162.44262496 163.70100588 167.60693359 163.07983398 C169.2920714 162.877342 170.97721112 162.67486589 172.66235352 162.47241211 C173.82613525 162.33254883 174.98991699 162.19268555 176.18896484 162.04858398 C175.24114085 160.93917708 174.29279698 159.83021433 173.34423828 158.72143555 C172.81618591 158.10383362 172.28813354 157.48623169 171.74407959 156.84991455 C168.94097187 153.60300069 166.03413832 150.45044065 163.14208984 147.28295898 C160.43583408 144.18700239 159.23216948 142.66425008 158.93896484 138.48608398 C159.18896484 135.04858398 159.18896484 135.04858398 161.18896484 133.04858398 C164.71254949 132.41433875 167.10786479 132.35116846 170.18115234 134.33374023 C174.32138579 137.86985402 177.88971095 141.86304635 181.40380859 146.00952148 C183.27024681 148.14142685 185.23098287 150.12510739 187.25146484 152.11108398 C188.56396484 153.42358398 189.87646484 154.73608398 191.18896484 156.04858398 C191.79611328 156.63510742 192.40326172 157.22163086 193.02880859 157.82592773 C195.99043564 160.89905132 197.57095143 163.00521694 197.75146484 167.36108398 C197.56583984 168.57795898 197.38021484 169.79483398 197.18896484 171.04858398 C194.11677894 173.09670792 192.7664931 173.44128108 189.20898438 173.92114258 C188.15444061 174.06605133 187.09989685 174.21096008 186.01339722 174.36026001 C184.83641266 174.5126413 183.6594281 174.66502258 182.44677734 174.82202148 C181.18785675 174.99027435 179.92893616 175.15852722 178.63186646 175.33187866 C156.35553132 178.281286 134.0198746 180.80922426 111.70166016 183.41772461 C106.56458903 184.01845912 101.42849038 184.6269712 96.29294205 185.24058151 C94.35317907 185.47079939 92.41306106 185.6980464 90.4725914 185.92222977 C87.78841421 186.23255078 85.10558662 186.5527277 82.42285156 186.87524414 C81.62828049 186.96462753 80.83370941 187.05401093 80.01506042 187.14610291 C76.38777175 187.5922215 74.28235754 187.98632218 71.18896484 190.04858398 C71.82962891 190.67764648 72.47029297 191.30670898 73.13037109 191.95483398 C77.62233179 196.39993369 81.9849479 200.87113496 86.09521484 205.66967773 C88.97594274 208.94274358 91.9576591 212.11722531 94.93896484 215.29858398 C102.8129578 223.70480054 102.8129578 223.70480054 106.5847168 227.82226562 C107.91926389 229.27710721 109.26303912 230.72346626 110.60693359 232.16967773 C112.40587658 234.17545834 114.08512156 236.15639743 115.73974609 238.27124023 C116.56861328 239.29088867 117.39748047 240.31053711 118.25146484 241.36108398 C118.96431641 242.2853418 119.67716797 243.20959961 120.41162109 244.16186523 C125.10234357 247.34838978 130.38585301 245.55740027 135.76202774 244.5815258 C138.47313061 244.02792496 141.1720084 243.43319714 143.87109375 242.82373047 C144.88692535 242.59925232 145.90275696 242.37477417 146.94937134 242.14349365 C150.27266575 241.40769715 153.59407914 240.6637596 156.91552734 239.91967773 C159.23282842 239.40493566 161.55024357 238.89070692 163.86776733 238.37696838 C169.94167862 237.0290928 176.01402279 235.67428454 182.08605957 234.31799316 C188.29260131 232.93295823 194.50061006 231.55453178 200.70849609 230.17553711 C212.87009158 227.47299354 225.03004066 224.76311871 237.18896484 222.04858398 C237.53720253 218.8212759 237.53720253 218.8212759 234.73974609 216.52514648 C233.66770542 215.56630266 232.58789581 214.61609151 231.50146484 213.67358398 C220.31475587 203.77817191 220.31475587 203.77817191 219.56396484 199.42358398 C220.18896484 196.04858398 220.18896484 196.04858398 222.31396484 193.98608398 C226.09438253 192.75333909 227.5643258 193.49966991 231.18896484 195.04858398 C233.79443359 197.11499023 233.79443359 197.11499023 236.37646484 199.61108398 C240.98103132 203.95809626 245.72216786 207.99813206 250.68115234 211.94311523 C253.18896484 214.04858398 253.18896484 214.04858398 255.88427734 216.81030273 C257.89263571 219.28081609 257.89263571 219.28081609 260.18896484 219.04858398 C260.4385049 220.48268767 260.66289127 221.9211847 260.87646484 223.36108398 C261.06789063 224.5618457 261.06789063 224.5618457 261.26318359 225.78686523 C261.18896484 228.04858398 261.18896484 228.04858398 260.00869751 229.59886169 C257.71237661 231.42826645 255.86328727 231.8622834 252.99902344 232.50585938 C251.35131454 232.88405067 251.35131454 232.88405067 249.6703186 233.2698822 C248.44670624 233.53845535 247.22309387 233.8070285 245.96240234 234.08374023 C244.64396899 234.38118107 243.32572755 234.67947361 242.00765991 234.97853088 C238.24439014 235.82838889 234.47770569 236.66215549 230.71006775 237.49240875 C228.08438083 238.07165605 225.45941596 238.65408664 222.83459473 239.23724365 C209.87646148 242.11500853 196.91170458 244.96214229 183.94488525 247.80047607 C178.65352546 248.95917628 173.36267638 250.12020391 168.07177734 251.28100586 C157.77799065 253.53907743 147.48366305 255.794672 137.18896484 258.04858398 C137.18896484 262.14120727 139.31292777 263.69331218 142.00146484 266.48608398 C143.01858688 267.56793197 144.03550851 268.64996842 145.05224609 269.73217773 C145.57512207 270.28373535 146.09799805 270.83529297 146.63671875 271.40356445 C149.01643455 273.92550926 151.35164482 276.4874151 153.68896484 279.04858398 C154.60669746 280.05010249 155.52466698 281.05140398 156.44287109 282.05249023 C158.26380315 284.03890281 160.0840634 286.02592785 161.90380859 288.01342773 C167.15904686 293.7519063 172.42760894 299.47776091 177.70825195 305.19287109 C181.94646988 309.78147939 186.16729491 314.38577365 190.38427734 318.99389648 C192.37163984 321.16231407 194.36770671 323.32238269 196.36865234 325.47827148 C196.90167969 326.05319336 197.43470703 326.62811523 197.98388672 327.22045898 C199.00213628 328.31800363 200.02157747 329.41444455 201.04248047 330.50952148 C204.21382497 333.92951335 207.22947053 337.44338182 210.18896484 341.04858398 C214.05122024 339.37056526 217.17575179 336.84518451 220.43896484 334.23608398 C221.04740234 333.75397461 221.65583984 333.27186523 222.28271484 332.77514648 C227.63268223 328.52344476 232.93040456 324.20739726 238.22509766 319.88720703 C242.51127193 316.39474961 246.8312525 312.951258 251.18896484 309.54858398 C257.68010029 304.4791301 264.07105172 299.29158356 270.45458984 294.08764648 C275.00790184 290.37676683 279.59249228 286.70587345 284.18896484 283.04858398 C282.33852009 278.18389273 278.20213779 275.0588061 274.44482422 271.64624023 C271.74705836 269.07662647 270.34094947 267.55859098 269.25537109 263.91577148 C269.19599194 261.35198929 269.35495075 259.45795803 270.18896484 257.04858398 C274.18590934 256.46569625 277.69731492 256.15020392 281.25146484 258.29077148 C283.3434958 260.12129857 285.2673529 262.03962605 287.18896484 264.04858398 C288.42646484 265.27061523 288.42646484 265.27061523 289.68896484 266.51733398 C291.87513194 268.67617399 294.03897851 270.85380627 296.18896484 273.04858398 C306.40439074 265.48916882 316.34178093 257.5791815 326.18896484 249.54858398 C356.95961369 224.45443539 356.95961369 224.45443539 367.34423828 222.62817383 C368.05683304 222.50108536 368.7694278 222.37399689 369.50361633 222.24305725 C371.85085225 221.82595085 374.19953626 221.41769914 376.54833984 221.00952148 C378.17939728 220.72146169 379.81035722 220.43284933 381.44122314 220.14370728 C385.72774055 219.38526439 390.01554003 218.63432812 394.3036499 217.88494873 C398.68158537 217.1185033 403.05826645 216.34496416 407.43505859 215.57202148 C416.01848238 214.05726442 424.60327361 212.55043552 433.18896484 211.04858398 C433.18896484 210.38858398 433.18896484 209.72858398 433.18896484 209.04858398 C425.53414614 205.31498115 417.85582851 201.63176779 410.15997314 197.98358154 C408.82336007 197.34952538 407.48723412 196.71444151 406.15155029 196.07843018 C401.98196551 194.09371321 397.80377608 192.12925123 393.61306763 190.18951416 C392.25316581 189.55676336 390.89607647 188.91793054 389.54196167 188.27288818 C387.62693529 187.36228631 385.70274047 186.47464029 383.77490234 185.59155273 C382.12047119 184.81847778 382.12047119 184.81847778 380.43261719 184.02978516 C373.60283435 181.96378356 367.16199528 184.88899597 360.68896484 187.14624023 C359.78345383 187.45657196 358.87794281 187.76690369 357.94499207 188.0866394 C356.01764416 188.74820368 354.09128909 189.41266648 352.16586304 190.07980347 C349.17475286 191.11600741 346.18089309 192.14389163 343.1862793 193.16992188 C334.91434157 196.00862645 326.65064299 198.86711296 318.41943359 201.82202148 C317.365625 202.19834717 316.31181641 202.57467285 315.22607422 202.96240234 C313.39680524 203.61954121 311.57091852 204.28621737 309.74951172 204.96484375 C301.06624572 208.08993346 301.06624572 208.08993346 296.18896484 207.04858398 C294.95448303 205.5687561 294.95448303 205.5687561 293.79858398 203.60571289 C293.36903915 202.87721634 292.93949432 202.14871979 292.49693298 201.39814758 C290.30377 197.45846759 288.22888344 193.46794211 286.19677734 189.44311523 C285.73358597 188.53295654 285.27039459 187.62279785 284.79316711 186.68505859 C283.8064132 184.74543647 282.82118383 182.80503809 281.83737183 180.86392212 C280.30110853 177.83574248 278.75788908 174.81120406 277.21264648 171.78759766 C272.97961502 163.49978467 268.74946793 155.21163002 264.62408447 146.86958313 C263.2757776 144.1464616 261.91401559 141.43020937 260.54998779 138.7149353 C259.93899568 137.48844869 259.33522234 136.2583368 258.73907471 135.02456665 C257.92629631 133.34289924 257.08761917 131.67382152 256.24755859 130.00561523 C255.57164673 128.62853394 255.57164673 128.62853394 254.88208008 127.22363281 C251.34030805 122.67371976 245.00988865 122.62659073 239.61126661 121.92670858 C238.61729887 121.80413297 237.62333114 121.68155736 236.59924316 121.55526733 C235.53254284 121.41880126 234.46584252 121.28233518 233.36681795 121.14173377 C229.79327178 120.68608592 226.21868758 120.23917861 222.64404297 119.79223633 C220.08143198 119.46733627 217.51888775 119.14190925 214.95640564 118.81599426 C208.71940446 118.0237507 202.48159657 117.23804351 196.24348629 116.45458625 C188.97753257 115.54181388 181.71237778 114.6227586 174.44724303 113.7034945 C161.48369634 112.06344219 148.5194004 110.42938926 135.5546875 108.79858398 C122.97693216 107.21645043 110.39977625 105.62965456 97.82324219 104.0378418 C84.12489198 102.30404884 70.42625464 100.57255999 56.7270751 98.84533083 C56.00251764 98.75397648 55.27796018 98.66262212 54.53144643 98.56849945 C53.07625251 98.38502476 51.62105798 98.20155491 50.16586283 98.01808994 C45.10245097 97.37958192 40.03923721 96.73951767 34.97608948 96.09891891 C28.16072462 95.23671526 21.34485344 94.37861318 14.5286274 93.52324486 C12.0250651 93.20847887 9.52166204 92.89244336 7.01843071 92.57505608 C3.60560624 92.14256085 0.19223704 91.71465454 -3.22131348 91.28793335 C-4.21528121 91.1608963 -5.20924895 91.03385924 -6.23333693 90.90297258 C-10.79138564 90.33797563 -15.20655129 89.89604398 -19.81103516 90.04858398 Z " fill="#000000" transform="translate(45.81103515625,77.951416015625)"/>
</svg>
